<?xml version="1.0" standalone="no"?>
<!DOCTYPE svg PUBLIC "-//W3C//DTD SVG 20010904//EN"
 "http://www.w3.org/TR/2001/REC-SVG-20010904/DTD/svg10.dtd">
<svg version="1.0" xmlns="http://www.w3.org/2000/svg"
 width="500.000000pt" height="500.000000pt" viewBox="0 0 500.000000 500.000000"
 preserveAspectRatio="xMidYMid meet">
<metadata>
Created by potrace 1.11, written by Peter Selinger 2001-2013
</metadata>
<g transform="translate(0.000000,500.000000) scale(0.100000,-0.100000)"
fill="#000000" stroke="none">
<path d="M2427 4724 c-1 -2 -38 -5 -82 -8 -78 -5 -144 -13 -195 -22 -14 -3
-36 -7 -50 -9 -160 -27 -371 -97 -549 -182 -118 -56 -307 -169 -351 -210 -14
-13 -28 -23 -32 -23 -10 0 -148 -120 -225 -195 -164 -161 -319 -378 -427 -599
-36 -74 -66 -141 -66 -148 0 -7 -8 -25 -17 -38 -10 -14 -17 -27 -16 -30 1 -3
-11 -48 -27 -100 -71 -230 -98 -409 -98 -660 0 -174 10 -284 38 -425 6 -33 13
-71 16 -85 3 -14 8 -34 11 -45 4 -11 8 -22 8 -25 6 -26 27 -98 32 -110 3 -8 7
-20 8 -26 15 -69 133 -320 212 -449 182 -301 486 -595 788 -766 192 -108 455
-211 621 -243 16 -3 49 -10 74 -15 125 -25 219 -33 405 -34 262 -1 463 29 695
104 95 32 106 36 213 83 32 14 59 26 61 26 12 0 216 118 286 165 275 185 534
465 686 741 13 24 35 64 49 89 66 119 147 340 185 505 5 19 10 44 13 55 3 11
8 40 12 65 4 25 9 53 11 64 19 104 25 422 11 551 -5 39 -10 86 -12 105 -4 33
-6 43 -19 100 -3 14 -8 37 -11 53 -12 64 -18 86 -59 211 -38 114 -137 336
-193 431 -117 198 -305 423 -467 558 -33 27 -65 55 -72 62 -17 17 -270 185
-278 185 -4 0 -23 11 -44 23 -150 94 -507 216 -707 242 -179 22 -230 27 -338
29 -54 1 -99 1 -100 0z"/>
</g>
</svg>
